<svg xmlns="http://www.w3.org/2000/svg" xmlns:xlink="http://www.w3.org/1999/xlink" viewBox="0 0 2135.2 1783.68">
  <defs/>
  <defs>
    <linearGradient id="linear-gradient" x1="802.87" x2="802.87" y1="1049.53" y2="1144.4" gradientUnits="userSpaceOnUse">
      <stop offset="0" stop-color="#57bea2"/>
      <stop offset="1" stop-color="#57bea2" stop-opacity="0"/>
    </linearGradient>
    <linearGradient id="linear-gradient-2" x1="1032.9" x2="1032.9" y1="1343.93" y2="1471.7" xlink:href="#linear-gradient"/>
    <linearGradient id="linear-gradient-3" x1="1178.77" x2="1176.89" y1="968.22" y2="1189.8" gradientUnits="userSpaceOnUse">
      <stop offset="0" stop-color="#ffffb8"/>
      <stop offset="1" stop-color="#ffffc5" stop-opacity="0"/>
    </linearGradient>
    <style>
      .cls-5{fill:#7284bc}.cls-6{fill:#fff8f3}.cls-7{fill:#90b7f0}.cls-8{fill:#ffdf56}.cls-9{fill:#f7675c}.cls-10{fill:#a2cbfc}.cls-11{fill:#fff}.cls-12{fill:#f2e9e4}.cls-13,.cls-19{fill:#816e89}.cls-14{fill:#ce8d55}.cls-17{fill:#3c2a42}.cls-18{fill:#523e59}.cls-19{opacity:.11}.cls-20{fill:#1b1828}.cls-21{fill:#a08282}.cls-23{fill:#4e4272}.cls-25{fill:#718f54}.cls-26{fill:#82a361}.cls-31{fill:#dbd6d2}.cls-32{fill:#8e8b88}.cls-33{fill:#ddb278}.cls-34{fill:#efc68b}.cls-35{fill:#3f9e83}.cls-36{fill:#337f68}.cls-37{fill:#cc5d4c}.cls-38{fill:#b54e43}.cls-40{fill:#34896f}.cls-41{fill:#b77748}.cls-42{fill:#4bb79b}
    </style>
  </defs>
  <g style="isolation:isolate">
    <g id="Layer_1" data-name="Layer 1">
      <path fill="#2c263f" d="M0 1625.38h2135.2v158.3H0z"/>
      <path fill="#554f72" d="M0 1595h2135.2v30.38H0z"/>
      <path style="mix-blend-mode:multiply" fill="url(#linear-gradient)" d="M502.24 1081.13h601.26v116.49H502.24z" opacity=".3"/>
      <path d="M746.96 1344.64h117.45v11.89H746.96z" class="cls-5"/>
      <path d="M742.78 1332.6h117.45v11.89H742.78z" class="cls-6"/>
      <path d="M746.96 1321.01h117.45v11.89H746.96z" class="cls-7"/>
      <path d="M751.14 1309.43h117.45v11.89H751.14z" class="cls-8"/>
      <path d="M738.42 1297.85h117.45v11.89H738.42z" class="cls-9"/>
      <path d="M744.47 1286.27h117.45v11.89H744.47z" class="cls-5"/>
      <rect width="63.72" height="26.23" x="665.17" y="1113.11" class="cls-10" rx="8.67"/>
      <path d="M651.28 1132.22h92.87v92.87h-92.87z" class="cls-11"/>
      <path d="M651.28 1132.22h92.87v23.39h-92.87z" class="cls-7"/>
      <path d="M658.92 1162.2h11.24v11.24h-11.24zM675.01 1162.2h11.24v11.24h-11.24zM691.1 1162.2h11.24v11.24H691.1zM707.19 1162.2h11.24v11.24h-11.24zM723.27 1162.2h11.24v11.24h-11.24zM658.92 1176.7h11.24v11.24h-11.24zM675.01 1176.7h11.24v11.24h-11.24zM691.1 1176.7h11.24v11.24H691.1zM707.19 1176.7h11.24v11.24h-11.24zM723.27 1176.7h11.24v11.24h-11.24zM658.92 1191.2h11.24v11.24h-11.24zM675.01 1191.2h11.24v11.24h-11.24zM691.1 1191.2h11.24v11.24H691.1zM707.19 1191.2h11.24v11.24h-11.24zM723.27 1191.2h11.24v11.24h-11.24zM658.92 1205.7h11.24v11.24h-11.24zM675.01 1205.7h11.24v11.24h-11.24zM691.1 1205.7h11.24v11.24H691.1zM707.19 1205.7h11.24v11.24h-11.24zM723.27 1205.7h11.24v11.24h-11.24z" class="cls-12"/>
      <path d="M672.4 1439.31a2.67 2.67 0 00-2.67 2.67v16.57a2.67 2.67 0 005.34 0V1442a2.68 2.68 0 00-2.67-2.69zM720.48 1439.31a2.68 2.68 0 00-2.67 2.67v16.57a2.67 2.67 0 105.34 0V1442a2.67 2.67 0 00-2.67-2.69z" class="cls-13" transform="translate(.43 -320)"/>
      <path d="M1441.94 993.39h371.8v237.34h-371.8z" class="cls-14"/>
      <path fill="#b2b0bf" d="M1456.96 1007.43h341.75v209.25h-341.75z"/>
      <path style="mix-blend-mode:multiply" fill="url(#linear-gradient-2)" d="M425.44 1386.49h1214.91v156.9H425.44z" opacity=".3"/>
      <path d="M436.71 1674.47h-17.53l37.56-286.01h17.52l-37.55 286.01zM1620.95 1674.47h17.53l-37.56-286.01h-17.53l37.56 286.01z" class="cls-12"/>
      <path d="M425.44 1356.54h1214.91v31.92H425.44z" class="cls-11"/>
      <path d="M942.08 1344.64h171.5v11.89h-171.5z" class="cls-17"/>
      <path d="M1289 1657.45h-18.07c-9.68 0-17.52 5.83-17.52 13v6.06h53.11v-6.06c-.05-7.17-7.89-13-17.52-13z" class="cls-17" transform="translate(.43 -320)"/>
      <rect width="274.15" height="156.48" x="1032.75" y="1161.87" class="cls-18" rx="10.64"/>
      <path d="M1146.67 1318.36h46.32v38.18h-46.32z" class="cls-17"/>
      <path d="M1129.68 1344.64h80.3v11.89h-80.3z" class="cls-17"/>
      <path d="M1182.34 1289.56h-45.6l-56.33-118.92h45.6l56.33 118.92zM1150.42 1170.64l56.34 118.92h-13.69l-56.33-118.92" class="cls-19"/>
      <path d="M1171.32 1624a3.36 3.36 0 11-3.36-3.35 3.35 3.35 0 013.36 3.35z" class="cls-17" transform="translate(.43 -320)"/>
      <ellipse cx="1016.29" cy="1685.28" class="cls-20" rx="144.78" ry="25.83"/>
      <path d="M932.73 1812.47s-2.45 16.37 23.84 20.13 91.79 3 114.79-1.48c19.43-3.79 16.43-21.62 16.43-21.62z" class="cls-21" transform="translate(.43 -320)"/>
      <path fill="#c4a2a1" d="M1000.38 1845.11v95.41c0 12.08 18.78 12.1 18.78 0v-95.41c0-12.08-18.78-12.1-18.78 0z" transform="translate(.43 -320)"/>
      <path d="M1006.38 1941.44a275.11 275.11 0 00-57.49 24c-12.56 7-20.15 15.27-17 30.52 1.82 8.87 15.4 5.12 13.58-3.74-2.43-11.8 14-16.75 22.44-20.91a259.3 259.3 0 0142.23-16.25c8.68-2.54 5-16.13-3.75-13.58z" class="cls-23" transform="translate(.43 -320)"/>
      <path d="M1010.44 1954.27c15.43 3.06 30.47 8.87 45.13 14.46 9.61 3.66 30.9 7.94 28.87 22-1.28 8.87 12.28 12.69 13.58 3.74 3-20.42-10.82-28.12-27-34.72-18.3-7.45-37.37-15.19-56.81-19-8.85-1.75-12.64 11.82-3.74 13.58z" class="cls-23" transform="translate(.43 -320)"/>
      <path d="M1006.23 1951c5.9 8.48 12.25 16.64 18.47 24.88s9.6 12.94 8.89 24.18c-.57 9.05 13.52 9 14.08 0 1.46-23.25-16.9-38.39-29.28-56.17-5.14-7.39-17.35-.36-12.16 7.11z" class="cls-23" transform="translate(.43 -320)"/>
      <circle cx="939.1" cy="1674.05" r="13.14" class="cls-23"/>
      <circle cx="1091.66" cy="1672.59" r="13.14" class="cls-23"/>
      <circle cx="1041.06" cy="1680.1" r="13.14" class="cls-23"/>
      <path d="M1021.27 1922.73h-22.14a1.29 1.29 0 00-1.29 1.29v29.56h24.73V1924a1.3 1.3 0 00-1.3-1.27z" class="cls-23" transform="translate(.43 -320)"/>
      <path d="M1009.77 1846.88c25.23 0 24.61-10.67 25.23-15.57l-50.84-.19c-.73 9.88 4.58 15.76 25.61 15.76z" class="cls-21" transform="translate(.43 -320)"/>
      <path d="M1020 1820.94l-118.15-3.15c-25.14-1-43-8.28-48.27-32.88-12.38-57.71-31.72-165.55-33.8-181.43-3.76-28.79 15.88-27.81 15.88-27.81h116.93s7.66 122 22.31 185.09c2.87 12.45 6.05 22.61 9.46 29.07 8.74 16.49 35.64 31.11 35.64 31.11z" class="cls-23" transform="translate(.43 -320)"/>
      <path fill="#594e84" d="M974.9 1760.76a62 62 0 01-11.06.41c-31.85-1.52-60.26-23-77.1-50.1s-23.68-59.13-27.55-90.79q-2.73-22.21-3.68-44.61h97.08s7.66 122.04 22.31 185.09z" transform="translate(.43 -320)"/>
      <path d="M938 1593.6c1.47 14.19 13.62 195.37 49.16 217.83 9 5.71 15.74 9.06 32.89 9.52 44.27 1.18 105.07.31 121.74-3.74 14.18-3.45 10.43-31-9.17-29.73-29.4 1.88-112.63 7.28-125.72-5.16-17.21-16.36-28.79-74.17-38.81-194a13.5 13.5 0 00-15.49-12.6c-10.1 1.49-15.71 7.28-14.6 17.88z" class="cls-5" transform="translate(.43 -320)"/>
      <path d="M978.1 1737.72l51.2.32c16.47.1 33.59-1 50 1.21 33 4.48 40.84 33.64 45.71 62.07 1.22 7.13 12.08 4.11 10.86-3-4.79-28-13.38-59-43.94-67.94-16.49-4.85-34.66-3.43-51.61-3.54l-62.17-.38c-7.25 0-7.26 11.22 0 11.26z" class="cls-5" transform="translate(.43 -320)"/>
      <path d="M1005.09 1722.59c-3.68 4.65-3.46 19.19 4.46 20.93 15.36 3.39 59.31 2.87 66.82 1.62s5.17-18.22 0-21c-7.04-3.87-68.52-5.05-71.28-1.55z" class="cls-23" transform="translate(.43 -320)"/>
      <ellipse cx="400.02" cy="1686.91" class="cls-20" rx="79.26" ry="19.49"/>
      <path d="M455.48 1846.26a7.59 7.59 0 00-5.5-2.38H349.2a7.58 7.58 0 00-7.55 8l8.93 151.44a3.8 3.8 0 003.79 3.58h90.44a3.8 3.8 0 003.79-3.58l8.93-151.44a7.61 7.61 0 00-2.05-5.62zm-39.07 59.92l-5.45 5.44-5.44-5.44 5.44-5.45zm-2.79-8.1l5.44-5.45 5.44 5.45-5.44 5.44zm-5.31 16.19l-5.45 5.45-5.44-5.45 5.44-5.44zm-5.45-10.75l-5.44-5.44 5.44-5.45 5.45 5.45zm-2.65 2.66l-5.44 5.44-5.45-5.44 5.45-5.45zm-8.1 8.09l-5.44 5.45-5.45-5.45 5.45-5.44zm-5.44-10.75l-5.45-5.44 5.45-5.45 5.44 5.45zm-2.66 2.66l-5.44 5.44-5.44-5.44 5.44-5.45zm0 16.19l-5.44 5.45-5.44-5.45 5.44-5.44zm2.66 2.66l5.44 5.44-5.44 5.44-5.45-5.44zm2.65-2.66l5.45-5.44 5.44 5.44-5.44 5.45zm13.54 2.66l5.45 5.44-5.45 5.44-5.44-5.44zm2.66-2.66l5.44-5.44 5.45 5.44-5.45 5.45zm13.54 2.66l5.44 5.44-5.44 5.44-5.44-5.44zm-5.44-10.76l5.44-5.44 5.44 5.44-5.44 5.45zm8.1-8.09l5.44-5.45 5.44 5.45-5.44 5.44zm0-16.2l5.44-5.44 5.44 5.44-5.44 5.44zm-2.66-2.66l-5.44-5.44 5.44-5.44 5.44 5.44zm-2.65 2.66l-5.45 5.44-5.44-5.44 5.44-5.44zm-13.55-2.66l-5.44-5.44 5.44-5.44 5.45 5.44zm-2.65 2.66l-5.44 5.44-5.45-5.44 5.45-5.44zm-13.54-2.66l-5.45-5.44 5.45-5.44 5.44 5.44zM384 1890l-5.44 5.44-5.44-5.44 5.44-5.44zm-13.54-2.66l-5.44-5.44 5.44-5.44 5.44 5.44zm-2.66 2.66l-5.44 5.44-5.44-5.44 5.44-5.44zm2.66 2.65l5.44 5.45-5.44 5.44-5.44-5.44zm5.44 21.64l-5.44 5.45-5.44-5.45 5.44-5.44zm0 16.2l-5.44 5.44-5.44-5.44 5.44-5.44zm0 16.2l-5.44 5.44-5.44-5.44 5.44-5.45zm-2.78-8.1l5.44-5.44 5.44 5.44-5.44 5.44zm13.54 2.66l5.44 5.44-5.44 5.44-5.45-5.44zm2.65-2.66l5.45-5.44 5.44 5.44-5.44 5.44zm13.54 2.65l5.45 5.45-5.45 5.44-5.44-5.44zm2.66-2.65l5.44-5.44 5.45 5.44-5.4 5.41zm13.54 2.66l5.44 5.44-5.44 5.44-5.44-5.44zm2.66-2.66l5.44-5.44 5.44 5.44-5.44 5.44zm0-16.2l5.44-5.44 5.44 5.44-5.44 5.45zm8.1-8.1l5.44-5.44 5.44 5.44-5.44 5.45zm0-16.19l5.44-5.45 5.44 5.45-5.44 5.44zm0-16.2l5.44-5.44 5.44 5.44-5.44 5.44zm0-16.2l5.44-5.44 5.44 5.44-5.44 5.45zm2.78 8.1l-5.44 5.44-5.44-5.44 5.44-5.44zm-13.54-2.65l-5.44-5.45 5.44-5.44 5.44 5.44zm-2.65 2.65l-5.45 5.44-5.44-5.44 5.44-5.44zm-13.55-2.65l-5.44-5.45 5.44-5.44 5.45 5.44zm-2.65 2.65l-5.44 5.44-5.45-5.44 5.45-5.44zm-13.54-2.65l-5.45-5.45 5.45-5.44 5.44 5.44zm-2.66 2.65l-5.44 5.44-5.44-5.44 5.44-5.44zm-13.54-2.65l-5.44-5.45 5.44-5.44 5.44 5.44zm-2.66 2.65l-5.44 5.44-5.44-5.44 5.44-5.44zm-13.54-2.65l-5.44-5.45 5.44-5.44 5.45 5.44zm5.45 10.75l-5.45 5.44-5.44-5.44 5.44-5.44zm0 16.2l-5.45 5.44-5.44-5.44 5.44-5.45zm2.65 2.65l5.44 5.45-5.44 5.44-5.44-5.44zm5.44 21.64l-5.44 5.45-5.44-5.45 5.44-5.44zm0 16.2l-5.44 5.44-5.44-5.44 5.44-5.44zm0 16.2l-5.44 5.44-5.44-5.44 5.44-5.45zm2.66 2.65l5.44 5.45-5.44 5.44-5.44-5.44zm2.66-2.65l5.44-5.45 5.44 5.45-5.44 5.44zm13.54 2.65l5.44 5.45-5.44 5.44-5.45-5.44zm2.65-2.65l5.45-5.45 5.44 5.45-5.44 5.44zm13.54 2.65l5.45 5.45-5.45 5.44-5.44-5.44zm2.66-2.65l5.44-5.45 5.45 5.45-5.45 5.44zm13.54 2.65l5.44 5.45-5.44 5.44-5.44-5.44zm2.66-2.65l5.44-5.45 5.44 5.45-5.44 5.44zm13.54 2.65l5.44 5.45-5.44 5.44-5.44-5.44zm-5.44-10.75l5.44-5.45 5.44 5.45-5.44 5.44zm0-16.2l5.44-5.44 5.44 5.44-5.44 5.44zm8.09-8.1l5.45-5.44 5.44 5.44-5.44 5.45zm0-16.19l5.45-5.45 5.44 5.45-5.44 5.44zm0-16.2l5.45-5.44 5.44 5.44-5.44 5.44zm0-16.2l5.45-5.44 5.44 5.44-5.44 5.44zm0-16.2l5.45-5.44 5.44 5.44-5.44 5.45zm-6.25-9.94h7.19l1.85 1.85-5.44 5.44-5.44-5.44zm.94 9.94l-5.44 5.45-5.44-5.45 5.44-5.44zm-17.13-9.94h7.19l1.84 1.85-5.44 5.44-5.44-5.44zm.94 9.94l-5.4 5.4-5.44-5.45 5.44-5.44zm-17.14-9.94h7.19l1.85 1.85-5.45 5.44-5.44-5.44zm.94 9.94l-5.44 5.45-5.45-5.45 5.45-5.44zm-17.14-9.94h7.19l1.85 1.85-5.44 5.44-5.45-5.44zm.94 9.94l-5.44 5.45-5.44-5.45 5.44-5.44zm-17.13-9.94h7.19l1.84 1.85-5.44 5.44-5.44-5.44zm.93 9.94l-5.44 5.45-5.44-5.45 5.44-5.44zm-18.61-9.94h8.67l1.85 1.85-5.45 5.44-6.84-6.84a3.84 3.84 0 011.78-.47zm-3.14 15.28l-.66-11.25v-.29l6.21 6.2-5.45 5.45zm.34 5.64l5.22 5.22-4.64 4.64zm1 17.21l4.21 4.21-3.74 3.74zm1 17.22l3.19 3.19-2.84 2.83zm.65 11l5.19-5.2 5.45 5.44-5.45 5.45-5.16-5.17zm.36 6.17l2.18 2.17-1.94 1.94zm.54 9.12l4.29-4.29 5.45 5.44-5.45 5.44-4.15-4.14zm.48 8.09l1.16 1.16-1 1zm1 17.49v-.28l.15.15zm-.35-5.92l-.26-4.36 3.39-3.39 5.45 5.44-5.45 5.44zm.64 10.93l2.49-2.49 5.45 5.45-5.45 5.44-2.12-2.12zm7.2 19.88h-6l-.27-4.58 1.59-1.59 5.45 5.44zm-2.05-8.83l5.44-5.44 5.44 5.44-5.44 5.45zm18.25 8.83h-9.42l-.73-.73 5.44-5.44 5.44 5.44zm-2.05-8.83l5.44-5.44 5.5 5.5-5.44 5.45zm18.25 8.83H382l-.74-.73 5.45-5.44 5.44 5.44zm-2.06-8.83l5.45-5.44 5.44 5.44-5.44 5.45zm18.26 8.83h-9.43l-.73-.73 5.44-5.44 5.45 5.44zm-2.06-8.83l5.44-5.44 5.45 5.44-5.45 5.45zm18.25 8.83h-9.42l-.73-.73 5.44-5.44 5.44 5.44zm-2-8.83l5.44-5.44 5.44 5.44-5.44 5.45zm18.25 8.83h-9.42l-.73-.73 5.44-5.44 5.44 5.44zm6.28-.49l-.24-.24.27-.27zm.37-6.15l-3.26 3.26-5.45-5.45 5.45-5.44 3.5 3.5zm.54-9.14l-1.15-1.14 1.29-1.29zm.47-8.07l-4.27 4.27-5.45-5.44 5.45-5.45 4.4 4.41zm.43-7.23l-2.05-2 2.3-2.3zm.59-10l-5.29 5.29-5.45-5.44 5.45-5.44 5.3 5.3zm.31-5.3l-2.95-3 3.32-3.31zm.9-15.3l-3.85-3.85 4.33-4.33zm.9-15.29l-4.75-4.75 5.35-5.35zm.93-15.74l-.23.23-5.45-5.44 5.45-5.44.81.81zm1-17.21l-1.25 1.25-5.45-5.45 5.45-5.44 1.71 1.72zm1-17.22l-2.26 2.27-5.45-5.44 1.85-1.85H450a3.77 3.77 0 012.77 1.19 3.83 3.83 0 011 2.84z" class="cls-23" transform="translate(.43 -320)"/>
      <circle cx="1342.2" cy="1279.39" r="60.4" class="cls-11" transform="rotate(-45 956.1388 1118.8643)"/>
      <circle cx="1342.63" cy="959.39" r="44.9" class="cls-5"/>
      <path d="M1342.2 1281.27H1317a1.88 1.88 0 010-3.76h23.85l9.42-27.83a1.88 1.88 0 113.56 1.21L1344 1280a1.89 1.89 0 01-1.8 1.27z" class="cls-6" transform="translate(.43 -320)"/>
      <path d="M559.39 965.18h24.69v94.67h-24.69z" class="cls-25"/>
      <path d="M568.43 975.35h6.61v74.33h-6.61z" class="cls-26"/>
      <path d="M584.07 963.46h24.69v96.39h-24.69z" class="cls-7"/>
      <path fill="#acd1fc" d="M596.42 963.46h12.34v96.39h-12.34z"/>
      <path d="M790.73 1282.76h24.69v94.67h-24.69z" class="cls-7" transform="rotate(-12.03 -715.189 1168.0692)"/>
      <path d="M608.76 960.64h24.69v99.21h-24.69z" class="cls-8"/>
      <path d="M633.45 970.66h24.69v89.19h-24.69z" class="cls-9"/>
      <path fill="#e55a53" d="M633.45 970.66h7.75v89.19h-7.75z"/>
      <path d="M658.13 965.18h24.69v94.67h-24.69z" class="cls-25"/>
      <path d="M673.93 965.18h8.89v94.67h-8.89z" class="cls-26"/>
      <path d="M682.82 968.78h24.69v91.07h-24.69z" class="cls-5"/>
      <path d="M707.51 965.18h24.69v94.67h-24.69z" class="cls-8"/>
      <path fill="#edcc40" d="M707.51 965.18h9.93v94.67h-9.93z"/>
      <path d="M732.19 955.01h24.69v104.84h-24.69z" class="cls-9"/>
      <path fill="#ff8680" d="M748.73 955.01h8.15v104.84h-8.15z"/>
      <path d="M756.88 965.18h24.69v94.67h-24.69z" class="cls-5"/>
      <path d="M763.74 972.53h10.97v79.97h-10.97z" class="cls-7"/>
      <rect width="38.71" height="117.5" x="1510.91" y="1454.79" class="cls-11" rx="2.06"/>
      <path d="M1541.89 1798.12a12.06 12.06 0 11-12.05-12.06 12 12 0 0112.05 12.06z" class="cls-31" transform="translate(.43 -320)"/>
      <path d="M1524.01 1474.52h2.82v7.2h-2.82zM1533.71 1474.52h2.82v7.2h-2.82z" class="cls-32"/>
      <path d="M1541.89 1833.54a12.06 12.06 0 11-12.05-12.06 12.05 12.05 0 0112.05 12.06z" class="cls-31" transform="translate(.43 -320)"/>
      <path d="M1524.01 1509.94h2.82v7.2h-2.82zM1533.71 1509.94h2.82v7.2h-2.82z" class="cls-32"/>
      <path d="M1541.89 1869a12.06 12.06 0 11-12.05-12.06 12.05 12.05 0 0112.05 12.06z" class="cls-31" transform="translate(.43 -320)"/>
      <path d="M1524.01 1545.36h2.82v7.2h-2.82zM1533.71 1545.36h2.82v7.2h-2.82z" class="cls-32"/>
      <rect width="38.71" height="117.5" x="487.53" y="1454.79" class="cls-11" rx="2.06"/>
      <path d="M518.51 1798.12a12.06 12.06 0 11-12.05-12.06 12.05 12.05 0 0112.05 12.06z" class="cls-31" transform="translate(.43 -320)"/>
      <path d="M500.63 1474.52h2.82v7.2h-2.82zM510.33 1474.52h2.82v7.2h-2.82z" class="cls-32"/>
      <path d="M518.51 1833.54a12.06 12.06 0 11-12.05-12.06 12.06 12.06 0 0112.05 12.06z" class="cls-31" transform="translate(.43 -320)"/>
      <path d="M500.63 1509.94h2.82v7.2h-2.82zM510.33 1509.94h2.82v7.2h-2.82z" class="cls-32"/>
      <path d="M518.51 1869a12.06 12.06 0 11-12.05-12.06 12.06 12.06 0 0112.05 12.06z" class="cls-31" transform="translate(.43 -320)"/>
      <path d="M500.63 1545.36h2.82v7.2h-2.82zM510.33 1545.36h2.82v7.2h-2.82z" class="cls-32"/>
      <path d="M463 1275.17h65.53v81.37H463z" class="cls-21"/>
      <path d="M471.57 1283.93h48.39v63.85h-48.39z" class="cls-6"/>
      <ellipse cx="485.53" cy="1305.43" class="cls-33" rx="7.26" ry="9.94"/>
      <path d="M511.86 1633.5c0 4.69-2.78 8.5-6.2 8.5s-6.2-3.81-6.2-8.5 2.78-8.49 6.2-8.49 6.2 3.8 6.2 8.49z" class="cls-34" transform="translate(.43 -320)"/>
      <path d="M479 1633.5s-7.09-1.72-5.84 13.46-.14 20.81-.14 20.81h24.15v-22.69s3.21-9.67-6-11.64z" class="cls-33" transform="translate(.43 -320)"/>
      <path d="M502.77 1641s-7.06.16-7.44 6 1.88 20.81 1.88 20.81h19.34V1647s-2.23-6-8-6z" class="cls-34" transform="translate(.43 -320)"/>
      <circle cx="621.1" cy="985.18" r="3.32" class="cls-6"/>
      <circle cx="621.1" cy="999.26" r="3.32" class="cls-6"/>
      <path d="M624 1333.34a3.32 3.32 0 11-3.32-3.32 3.32 3.32 0 013.32 3.32z" class="cls-6" transform="translate(.43 -320)"/>
      <path d="M690.2 985.18h7.51v17.4h-7.51zM690.2 1007.96h7.51v17.4h-7.51zM690.2 1030.74h7.51v17.4h-7.51z" class="cls-7"/>
      <path d="M792.77 963.98l20.49 92.42 12.18-2.59-19.73-92.59-12.94 2.76z" class="cls-10"/>
      <path d="M555.63 990.37h3.76v69.48h-3.76z" class="cls-5"/>
      <path d="M529.66 1056.4h25.98v3.45h-25.98z" class="cls-5"/>
      <path d="M926.76 1281.35c.79-2.11 2-4.63.77-6.57-2.94-4.62-6.18-1.9-8.39-1.47.76-3.15-1.12-6.16-4.45-6.15-5.66 0-6.39 3.63-6 6.17-.85-3.38-6.68-1.19-7.6.11-1.76 2.51-.29 5.92.59 6.28-1.82.34-3.52 2.36-4 4.21-2 8.07 8.38 16 10.51 17.32a13.06 13.06 0 007.18 1.38c3.12-.1 6.38-.64 8.84-2.56 4.05-3.17 8.62-7.51 6.9-15.17-.39-1.99-2.32-3.78-4.35-3.55z" class="cls-9" transform="translate(.43 -320)"/>
      <path d="M890.39 1314.35a7.55 7.55 0 001.73-1.93c.77-1.61-.18-3.47-1-5.07-1.48-3-2.44-6.49-1.45-9.68s6-3.23 9.2-2.16c-1.2-3.24 2-8.6 5.41-8.61s7.57 3.08 8.45 6.42c2.35-6.42 7.71-6.2 10-4.42s3.7 4.49 5 7.11a8.4 8.4 0 1114 9.23c2.88.44 4.32 4.06 3.54 6.87s-3 4.92-5.19 6.88c4 2 4.57 7.84 2.4 11.74s-6.19 6.33-10 8.59c-11.9 7-22.42 6.76-34.34-.39-7.32-4.4-15.86-16.63-7.75-24.58z" class="cls-35" transform="translate(.43 -320)"/>
      <path d="M900.43 1299.62c-2.34 2.69-3.52 4.65-2.85 8.41a10.3 10.3 0 001.48 3.89c2.24 3.36 2.74.95 2.07 7.1-.59 5.5-1.44 11.58 5.24 13.65 1.21.37 2.32-1.35 1.29-2.21-3.81-3.12-4.48-6.44-3-11.17.45-1.48 1.21-2.65.9-4.25a7.53 7.53 0 00-1.68-3c-2.48-3.59-4.8-7.08-2.33-11.6.37-.68-.56-1.48-1.1-.86zM915.73 1298.5a9.51 9.51 0 00-2.84 7.38 11.86 11.86 0 001.05 3.49 6.23 6.23 0 011.7 4.21c-.5 1-1 2-1.39 3-1.53 4.8.33 10.55 5.31 12.31a1.29 1.29 0 001.24-2.14c-2.65-2.29-4.46-4.66-3.79-8.34.34-1.86 1.6-3.44 1.72-5.36a6.19 6.19 0 00-.41-2.55c-1.58-4-4.39-6.49-1.25-11 .56-.79-.68-1.73-1.34-1zM925.31 1301c4.84 1.09 5.87 5.56 4.19 9.37-.63 1.42-1.6 2.94-1.58 4.54a6.92 6.92 0 00.84 2.79c.93 2.37 2.1 3.65 1.42 6.22-.61 2.3-2.28 3.63-4.24 4.89a.77.77 0 00.38 1.42 6.7 6.7 0 006.21-4.59c1.72-4.19-.87-6.13-1.53-10-.62-3.63 2.89-6.57 1.71-10.39a8.87 8.87 0 00-6.94-6c-1.06-.16-1.57 1.41-.46 1.66z" class="cls-36" transform="translate(.43 -320)"/>
      <path d="M952.54 1327.43H882a2.27 2.27 0 00-2.26 2.52l5.36 49.9h64.38l5.36-49.9a2.27 2.27 0 00-2.3-2.52z" class="cls-37" transform="translate(.43 -320)"/>
      <path d="M890.69 1339.64c18 .39 37.14 1.65 55.09-.34a.76.76 0 000-1.52c-17.95-2-37-.73-55.09-.34a1.1 1.1 0 000 2.2zM894.32 1351.6c3.4-.78 7-.36 10.38-.93a.9.9 0 000-1.73c-3.43-.57-7-.15-10.38-.93-3-.69-3 4.29 0 3.59zM895.7 1360.47a73.67 73.67 0 008.14-.11.54.54 0 000-1.08 73.67 73.67 0 00-8.14-.11.65.65 0 000 1.3z" class="cls-38" transform="translate(.43 -320)"/>
      <path fill="#efcf48" d="M1012.44 1321.35c.49-1.45 1.19-2.93 1-4.45-.26-1.85-1.79-3.23-2.63-4.9-3-6 3.38-12.92 2.07-19.46-.51-2.51-2.12-4.67-2.86-7.13s-.17-5.75 2.25-6.59a6.16 6.16 0 012.39-5.54c4.35 3.74-.62 12.21 3.51 16.19a9 9 0 011.85 1.8c1.12 2-1 4.31-1 6.59a8.92 8.92 0 00.84 2.9c1.53 4 1.33 8.49 1.11 12.8l-1.11 21.58c-.35 6.87-4.93 1.81-6.48-1.37a16.72 16.72 0 01-.94-12.42z" transform="translate(.43 -320)"/>
      <path d="M1008.38 1319.28c-5.41-4.11-14-4.21-18.51.87-2.88 3.26-3.66 7.81-5 11.95s-3.9 8.51-8.17 9.39c6 .23 9-2.91 11.06-7 1-2.12 1.51-4.56 3-6.38a8 8 0 017-2.64 10.72 10.72 0 016.65 3.66 14.34 14.34 0 013.4 8.41 12.41 12.41 0 00.32 2.66 4.46 4.46 0 005.49 2.79c8.46-2.94-1.13-20.58-5.24-23.71z" class="cls-40" transform="translate(.43 -320)"/>
      <path d="M1011.65 1335.33c-.41-4.1-.81-8.32.38-12.27 1.09-3.58 3.4-6.65 5.71-9.59s4.92-6.15 8.28-8.11 7.77-2.57 11.09-.55c2.58 1.58 4.06 4.41 5.72 6.94s3.9 5.08 6.91 5.42c-1.25 2.16-4.44 2.23-6.68 1.16s-4-3-6.25-4.06a10.49 10.49 0 00-11.32 1.52c-3.69 3.27-4.54 8.77-3.9 13.66.37 2.81 1.13 5.73.2 8.41-2.53 7.14-9.58 3.14-10.14-2.53z" class="cls-40" transform="translate(.43 -320)"/>
      <path d="M1020.83 1332.18a17.18 17.18 0 012.34-6.12c3.13-4.44 10-5.13 14.63-2.3 3 1.87 5.21 4.86 8 7.13s7.35 3.27 13.51.87c-.26 1.76-7.72 8.19-16.06 2.4-3.11-2.16-6.83-4-10.58-3.47-2.79.36-4.4 3.41-4.76 6.2-1.26 9.55-8.91 3.11-7.08-4.71z" class="cls-35" transform="translate(.43 -320)"/>
      <path d="M1022.24 1320.06c-4.46-14.23-17.44-15.14-20-21s-2.32-9.93-2.62-16.28a29.12 29.12 0 00-4.83 14 14.25 14.25 0 00.75 6.39c2.71 6.66 12.18 8.73 14.45 15.55.87 2.62.48 5.49-.06 8.2s-1.22 5.47-.88 8.21c.71 5.79 7.64 9.12 11.39 3.92 3.1-4.24 3.27-14.32 1.8-18.99z" class="cls-35" transform="translate(.43 -320)"/>
      <path d="M1041.68 1336.66h-47.79a1.77 1.77 0 00-1.53 2.07l3.63 41.12h43.59l3.63-41.12a1.77 1.77 0 00-1.53-2.07z" class="cls-14" transform="translate(.43 -320)"/>
      <path d="M999.61 1346c11.62.37 23.43.8 35.05.13a.71.71 0 000-1.41c-11.61-.68-23.43-.24-35.05.13a.58.58 0 000 1.15zM1003.36 1355.16c3.26.07 6.91.6 10.12 0a.39.39 0 000-.74c-3.21-.58-6.87 0-10.12 0a.35.35 0 000 .7zM1005.86 1364.85c2.49.08 5.25.5 7.7 0a.69.69 0 000-1.33c-2.45-.49-5.21-.07-7.7 0a.65.65 0 000 1.29z" class="cls-41" transform="translate(.43 -320)"/>
      <ellipse cx="1735.18" cy="1680.81" class="cls-20" rx="79.26" ry="19.49"/>
      <path d="M1775.55 1904.38c4.23-9.14 1.08-30.7 2-40.91 2.62-30.34 14.78-51.82 23.37-67.69s15.69-34.48 12.24-52.69c-2.51 12.93-10.81 23.44-20 31.6s-19.48 14.6-28.35 23.16c-14.39 13.89-24.58 52.05-28.54 73-1.24 6.59-1.87 13.53-.19 20 5.04 19.57 31.7 30.3 39.47 13.53z" class="cls-35" transform="translate(.43 -320)"/>
      <path d="M1722.42 1794c7.75-35 6.18-27.9 27-122.18 4.35 18.64 4.43 62.79 4.33 75.4-.22 26.78-2.3 72.32-6.21 98.73-2.15 14.49-2.91 47.46-21.28 30.33-16.01-14.96-8.06-63.2-3.84-82.28z" class="cls-35" transform="translate(.43 -320)"/>
      <path d="M1688.39 1820.38c-1-11.12-3.75-26.11-8-36.25a400.92 400.92 0 00-20.4-42c32.71 21.14 56.18 78.12 63.51 120 2.25 12.83 9.18 50.15-11.69 37.91-31.12-18.29-20.91-52.04-23.42-79.66zM1736.24 1795.35c4.94-11.57 12.79-21.13 19.8-31.22a238.37 238.37 0 0029.26-57.73 121.35 121.35 0 01-1.26 75.14c-4.63 13.15-11.58 44.09-14.6 57.83-2.68 12.2-.25 90.23-24.39 77.63-8.92-4.66-11.15-30.94-12.6-40.18-3.28-20.82-4.58-61.82 3.79-81.47z" class="cls-42" transform="translate(.43 -320)"/>
      <path fill="#5bceb2" d="M1701.82 1772.57c.26-23.18-6.19-45.93-6.08-69.11a208.69 208.69 0 0128.45 86.53c2.43 24.25 7.07 60.93 13.85 83.69 4.09 13.73 2 21.11-11.21 17-40.33-12.49-25.37-84.97-25.01-118.11z" transform="translate(.43 -320)"/>
      <path d="M1789.69 1881.75h-109a2.71 2.71 0 00-2.7 3l9.39 108.37a7.7 7.7 0 007.67 7h80.28a7.7 7.7 0 007.67-7l9.39-108.37a2.71 2.71 0 00-2.7-3z" class="cls-37" transform="translate(.43 -320)"/>
      <path d="M1689.36 1905.23c14.23 1.24 28.81.53 43.09.54s28.82.61 43.1-.56a.84.84 0 000-1.67c-14.28-1.16-28.78-.56-43.1-.55s-28.85-.7-43.09.54a.85.85 0 000 1.7zM1697.57 1931.05c22.92 1.35 47.6 2.53 70.45.2a.88.88 0 000-1.76c-22.85-2.33-47.52-1.15-70.45.21a.68.68 0 000 1.35zM1702.36 1959.83c22.45.43 45.29 1.46 67.72.18a.91.91 0 000-1.82c-22.43-1.28-45.27-.25-67.72.18a.73.73 0 000 1.46zM1709.2 1984.22c18.1-1 37 1.46 54.91-1.16a.73.73 0 000-1.41c-17.92-2.62-36.81-.2-54.91-1.16-2.4-.12-2.4 3.86 0 3.73z" class="cls-38" transform="translate(.43 -320)"/>
      <path d="M502.24 1059.85h601.26v21.28H502.24z" class="cls-11"/>
      <path d="M1174.55 0h6.25v960.56h-6.25z" class="cls-18"/>
      <path d="M1230.43 1318.94h-106.37a53.19 53.19 0 01106.37 0z" class="cls-13" transform="translate(.43 -320)"/>
      <path d="M1170.04 905.08h15.26v56.89h-15.26z" class="cls-13"/>
      <path fill="url(#linear-gradient-3)" d="M1124.49 998.94l-86.27 231.47h276.66l-84.02-231.47h-106.37z"/>
    </g>
  </g>
</svg>