<svg xmlns="http://www.w3.org/2000/svg" xmlns:xlink="http://www.w3.org/1999/xlink" id="Layer_1" data-name="Layer 1" viewBox="0 0 291.61 162.8">
  <defs/>
  <defs>
    <linearGradient id="linear-gradient" x1="-286.6" x2="-298.53" y1="-432.15" y2="-420.22" gradientTransform="matrix(.91 .71 -.91 .71 49.01 603.41)" gradientUnits="userSpaceOnUse">
      <stop offset="0" stop-color="#ececec"/>
      <stop offset="1" stop-color="#c6c6c5"/>
    </linearGradient>
    <linearGradient id="linear-gradient-2" x1="22.69" x2="120.7" y1="126.9" y2="126.9" gradientTransform="rotate(135 71.6948 126.8965)" gradientUnits="userSpaceOnUse">
      <stop offset="0" stop-color="#6c03f6"/>
      <stop offset="1" stop-color="#da29b7"/>
    </linearGradient>
    <linearGradient id="New_Gradient_Swatch_copy_3" x1="115.65" x2="27.74" y1="18.15" y2="106.06" gradientTransform="rotate(45 71.698 62.0983)" gradientUnits="userSpaceOnUse">
      <stop offset="0" stop-color="#f15a60"/>
      <stop offset="1" stop-color="#fe6ec2"/>
    </linearGradient>
    <linearGradient id="New_Gradient_Swatch_copy_3-2" x1=".02" x2="33.19" y1="81.4" y2="81.4" xlink:href="#New_Gradient_Swatch_copy_3"/>
    <linearGradient id="linear-gradient-3" x1="-25.27" x2="-70.21" y1="917.62" y2="962.56" gradientTransform="matrix(.91 -.71 -.91 -.71 1172.9 693.09)" xlink:href="#linear-gradient-2"/>
    <linearGradient id="New_Gradient_Swatch_copy_3-3" x1="735.6" x2="690.66" y1="-219.93" y2="-174.99" gradientTransform="matrix(.91 -.71 -.91 -.71 -551.77 491.53)" xlink:href="#New_Gradient_Swatch_copy_3"/>
    <linearGradient id="linear-gradient-4" x1="1474.9" x2="1475.88" y1="-256.8" y2="-236.76" gradientTransform="matrix(.91 -.71 -.91 -.71 -1270.4 958.45)" gradientUnits="userSpaceOnUse">
      <stop offset=".25" stop-color="#fe6ec2"/>
      <stop offset="1" stop-color="#f15a60"/>
    </linearGradient>
    <style>
      .cls-1,.cls-3{fill:#a5a5a5;opacity:.3}.cls-3{fill:#540096}
    </style>
  </defs>
  <rect width="215.3" height="33.17" x="60.55" y="78.31" class="cls-1" rx="16.58" transform="rotate(-135 154.1444 93.0425)"/>
  <rect width="33.17" height="33.17" x="151.76" y="78.59" fill="url(#linear-gradient)" rx="16.58" transform="rotate(-45 141.178 116.0222)"/>
  <rect width="162.55" height="33.17" x="129.07" y="64.81" class="cls-3" rx="16.58"/>
  <rect width="124.42" height="33.17" x="138.4" y="45.66" class="cls-3" rx="16.58" transform="rotate(-45 173.4456 83.0865)"/>
  <rect width="97.96" height="33.17" x="64.28" y="64.81" class="cls-3" rx="16.58"/>
  <rect width="124" height="33.17" x="74.23" y="110.03" class="cls-3" rx="16.58" transform="rotate(-45 109.067 147.453)"/>
  <rect width="124.86" height="33.17" x="9.26" y="110.31" fill="url(#linear-gradient-2)" rx="16.58" transform="rotate(-135 57.6357 125.0451)"/>
  <rect width="124.33" height="33.17" x="9.53" y="45.52" fill="url(#New_Gradient_Swatch_copy_3)" rx="16.58" transform="rotate(-45 44.5274 82.9461)"/>
  <rect width="33.17" height="33.17" x=".02" y="64.81" fill="url(#New_Gradient_Swatch_copy_3-2)" rx="16.58"/>
  <rect width="33.17" height="33.17" x="151.76" y="78.45" class="cls-1" rx="16.58" transform="rotate(-45 141.1797 115.8815)"/>
  <rect width="124.86" height="33.17" x="202.56" y="45.52" fill="url(#linear-gradient-3)" rx="16.58" transform="rotate(45 269.4635 28.1654)"/>
  <rect width="124.33" height="33.17" x="202.83" y="110.31" fill="url(#New_Gradient_Swatch_copy_3-3)" rx="16.58" transform="rotate(135 256.3623 115.6433)"/>
  <rect width="33.17" height="33.17" x="280.27" y="78.45" fill="url(#linear-gradient-4)" rx="16.58" transform="rotate(180 285.51 88.485)"/>
</svg>