<svg xmlns="http://www.w3.org/2000/svg" xmlns:xlink="http://www.w3.org/1999/xlink" viewBox="0 0 291.62 162.8"><defs><style>.cls-1{fill:url(#linear-gradient);}.cls-2{fill:#a5a5a5;}.cls-2,.cls-3{opacity:0.3;}.cls-3{fill:#540096;}.cls-4{fill:url(#linear-gradient-2);}.cls-5{fill:url(#New_Gradient_Swatch_copy_3);}.cls-6{fill:url(#linear-gradient-3);}.cls-7{fill:url(#linear-gradient-4);}.cls-8{fill:url(#New_Gradient_Swatch_copy_3-2);}.cls-9{fill:url(#New_Gradient_Swatch_copy_3-3);}</style><linearGradient id="linear-gradient" x1="-319.53" y1="-425.64" x2="-331.47" y2="-413.71" gradientTransform="matrix(0.91, 0.71, -0.91, 0.71, 67.01, 613.58)" gradientUnits="userSpaceOnUse"><stop offset="0" stop-color="#ececec"/><stop offset="1" stop-color="#c6c6c5"/></linearGradient><linearGradient id="linear-gradient-2" x1="-212.34" y1="-302.7" x2="-257.28" y2="-257.76" gradientTransform="matrix(0.91, -0.71, -0.91, -0.71, 214.4, -310.6)" gradientUnits="userSpaceOnUse"><stop offset="0" stop-color="#6c03f6"/><stop offset="1" stop-color="#da29b7"/></linearGradient><linearGradient id="New_Gradient_Swatch_copy_3" x1="597.88" y1="-108.64" x2="552.95" y2="-63.7" gradientTransform="matrix(0.91, -0.71, -0.91, -0.71, -343.98, 464.33)" gradientUnits="userSpaceOnUse"><stop offset="0" stop-color="#f15a60"/><stop offset="1" stop-color="#fe6ec2"/></linearGradient><linearGradient id="linear-gradient-3" x1="665.02" y1="-12.43" x2="666" y2="7.61" gradientTransform="matrix(0.91, -0.71, -0.91, -0.71, -332.7, 550.06)" gradientUnits="userSpaceOnUse"><stop offset="0.25" stop-color="#fe6ec2"/><stop offset="1" stop-color="#f15a60"/></linearGradient><linearGradient id="linear-gradient-4" x1="4.78" y1="118.38" x2="102.79" y2="118.38" gradientTransform="translate(175.52 164.06) rotate(135)" xlink:href="#linear-gradient-2"/><linearGradient id="New_Gradient_Swatch_copy_3-2" x1="97.74" y1="9.63" x2="9.83" y2="97.55" gradientTransform="translate(53.65 -22.34) rotate(45)" xlink:href="#New_Gradient_Swatch_copy_3"/><linearGradient id="New_Gradient_Swatch_copy_3-3" x1="0.03" y1="81.4" x2="33.19" y2="81.4" gradientTransform="matrix(1, 0, 0, 1, 0, 0)" xlink:href="#New_Gradient_Swatch_copy_3"/></defs><g id="centre"><rect class="cls-1" x="133.85" y="70.08" width="33.17" height="33.17" rx="16.58" transform="translate(-22 127.17) rotate(-45)"/><rect class="cls-2" x="133.85" y="69.94" width="33.17" height="33.17" rx="16.58" transform="translate(-21.9 127.13) rotate(-45)"/></g><g id="rest"><rect class="cls-2" x="184.65" y="37.01" width="124.86" height="33.17" rx="16.58" transform="translate(105.48 -163.61) rotate(45)"/><rect class="cls-2" x="42.64" y="69.8" width="215.3" height="33.17" rx="16.58" transform="translate(190.71 249.15) rotate(-135)"/></g><g id="zeta-light"><path class="cls-3" d="M296.4,86a16.68,16.68,0,0,1-7,13.52l-62.84,62.83a16.58,16.58,0,0,1-23.45-23.45l36.31-36.32h-89a16.22,16.22,0,0,1-2.78-.24,5.67,5.67,0,0,1-.57-.1,16.15,16.15,0,0,1-2.44-.7c-.22-.08-.45-.17-.67-.27s-.49-.21-.73-.33a16.38,16.38,0,0,1-4.54-3.22l-3.22-4.54c-.12-.24-.23-.48-.33-.73s-.2-.48-.29-.72l-.27-.8c-.07-.23-.14-.46-.2-.69l0-.14c-.06-.25-.12-.51-.17-.76s-.09-.43-.12-.65L133.85,86a17,17,0,0,1,.23-2.76c0-.2.07-.39.11-.58q.1-.51.24-1c0-.19.11-.38.17-.57s.16-.52.26-.77.19-.51.3-.76.21-.49.33-.73a16.38,16.38,0,0,1,3.22-4.54L203.23,9.74a16.58,16.58,0,1,1,23.45,23.45L190.47,69.4h89.34A16.59,16.59,0,0,1,296.4,86Z" transform="translate(-4.78 -4.59)"/></g><g id="gi-light"><path class="cls-3" d="M167,86a16.18,16.18,0,0,1-.22,2.69c0,.22-.07.43-.12.65s-.11.51-.17.76c0,0,0,.09,0,.14-.06.23-.13.46-.2.69a12.81,12.81,0,0,1-.47,1.31,5,5,0,0,1-.23.53,14.77,14.77,0,0,1-1,2c-.11.18-.23.36-.35.54a15.56,15.56,0,0,1-2,2.45l-61.91,61.91a16.75,16.75,0,0,1-2.32,2.91,16.6,16.6,0,0,1-23.45,0L9.64,97.69a16.57,16.57,0,0,1,0-23.45c.25-.25.5-.48.76-.71L74.29,9.63A16.58,16.58,0,1,1,97.74,33.08L44.84,86l41.07,41.07,24.49-24.49H85.64a16.59,16.59,0,0,1,0-33.17h64.79a16.51,16.51,0,0,1,2.71.22c.21,0,.42.07.63.12s.64.14,1,.22l.63.19c.26.08.52.16.77.26l.55.21c.17.07.35.14.53.23a14.18,14.18,0,0,1,2,1l.54.35a16.52,16.52,0,0,1,2.45,2l2,2.45c.12.18.24.36.35.54l1,1.93a4.7,4.7,0,0,1,.25.57l.22.56c.09.24.17.49.25.75s.12.38.17.57l.24,1c0,.19.08.38.11.58Z" transform="translate(-4.78 -4.59)"/></g><g id="right"><rect class="cls-4" x="184.65" y="37.01" width="124.86" height="33.17" rx="16.58" transform="translate(105.48 -163.61) rotate(45)"/><rect class="cls-5" x="184.92" y="101.8" width="124.33" height="33.17" rx="16.58" transform="translate(500.73 22.79) rotate(135)"/><rect class="cls-6" x="262.36" y="69.94" width="33.17" height="33.17" rx="16.58" transform="translate(553.11 168.45) rotate(180)"/></g><g id="left"><rect class="cls-7" x="-8.65" y="101.8" width="124.86" height="33.17" rx="16.58" transform="translate(3.33 235.53) rotate(-135)"/><rect class="cls-8" x="-8.38" y="37.01" width="124.33" height="33.17" rx="16.58" transform="translate(-26.92 49.14) rotate(-45)"/><rect class="cls-9" x="0.03" y="64.81" width="33.17" height="33.17" rx="16.58"/></g></svg>